# xmcd CD database file
#
# Track frame offsets:
#	150
#	35250
#	52685
#	77539
#	118758
#	149165
#	183295
#	213828
#	251240
#	273415
#
# Disc length: 4185 seconds
#
# Revision: 2
# Processed by: cddbd v1.5.2PL0 Copyright (c) Steve Scherf et al.
# Submitted via: CDex 1.51
#
DISCID=8a10570a
DTITLE=Axel Zwingenberger - Red Hot Boogie Woogie Party
DYEAR=1999
DGENRE=Boogie Woogie
TTITLE0=Soulfood Jive
TTITLE1=Heat It Up!
TTITLE2=Cool It Down
TTITLE3=Barrelhouse Women
TTITLE4=Check It Out
TTITLE5=Slow Mother For You
TTITLE6=Brush'n Up Boogie
TTITLE7=Red Hot Boogie Woogie
TTITLE8=Papa Wants To Knock A Jug
TTITLE9=So Long To The Party
EXTD=YEAR: 1999
EXTT0=
EXTT1=
EXTT2=
EXTT3=
EXTT4=
EXTT5=
EXTT6=
EXTT7=
EXTT8=
EXTT9=
PLAYORDER=
